<?xml version="1.0" standalone="no"?>
<!DOCTYPE svg PUBLIC "-//W3C//DTD SVG 20010904//EN"
 "http://www.w3.org/TR/2001/REC-SVG-20010904/DTD/svg10.dtd">
<svg version="1.0" xmlns="http://www.w3.org/2000/svg"
 width="300.000000pt" height="300.000000pt" viewBox="0 0 300.000000 300.000000"
 preserveAspectRatio="xMidYMid meet">
<metadata>
Created by potrace 1.11, written by Peter Selinger 2001-2013
</metadata>
<g transform="translate(0.000000,300.000000) scale(0.100000,-0.100000)"
fill="#000000" stroke="none">
<path d="M442 2984 c-52 -22 -70 -63 -87 -199 -2 -22 -6 -49 -9 -60 -3 -18
-15 -97 -21 -150 -2 -11 -8 -56 -14 -100 -20 -151 -23 -190 -26 -297 -4 -161
31 -293 109 -411 57 -86 161 -171 259 -211 29 -12 37 -20 33 -33 -2 -10 -8
-79 -11 -153 -3 -74 -8 -164 -10 -200 -2 -36 -7 -114 -10 -175 -5 -116 -15
-283 -20 -375 -11 -177 -19 -367 -19 -447 -1 -84 1 -93 24 -118 49 -52 62 -55
294 -55 126 0 226 4 242 11 35 13 84 66 85 93 3 47 -7 318 -16 427 -2 24 -7
105 -10 179 -4 74 -8 160 -10 190 -4 59 -12 216 -20 370 -3 52 -7 134 -10 182
l-6 87 73 37 c98 51 213 165 255 254 52 107 83 235 77 316 -1 16 -5 70 -8 121
-3 50 -10 122 -15 160 -6 37 -13 91 -16 118 -4 28 -8 57 -10 65 -2 8 -7 39
-10 69 -4 30 -9 63 -11 75 -2 11 -6 38 -10 61 -20 142 -41 170 -136 182 -67 9
-137 -27 -153 -77 -4 -13 -8 -210 -7 -437 0 -227 -3 -413 -7 -414 -69 -9 -85
-2 -87 38 -1 15 -5 78 -8 138 -3 61 -8 146 -11 190 -11 167 -15 234 -21 350
-3 66 -11 131 -17 144 -39 80 -196 92 -250 19 -20 -26 -20 -30 -31 -258 -4
-69 -9 -150 -11 -180 -2 -30 -7 -109 -10 -175 -10 -199 -15 -248 -26 -261 -14
-17 -69 -15 -76 3 -3 7 -6 202 -7 432 l-1 419 -24 26 c-41 43 -127 57 -189 30z"/>
<path d="M2485 2989 c-69 -16 -200 -86 -277 -147 -206 -165 -354 -402 -405
-647 -18 -84 -22 -235 -10 -321 29 -211 165 -437 358 -598 42 -35 47 -42 44
-75 -3 -34 -8 -94 -20 -251 -3 -36 -7 -87 -10 -115 -3 -27 -7 -86 -10 -130 -3
-44 -8 -100 -11 -125 -2 -25 -7 -81 -10 -125 -3 -44 -7 -98 -9 -120 -21 -228
-18 -250 40 -305 26 -25 28 -25 239 -27 207 -3 214 -2 246 20 18 12 41 38 52
57 18 34 18 86 16 1430 l-3 1395 -24 34 c-40 56 -108 73 -206 50z"/>
</g>
</svg>
